<?xml version="1.0" standalone="no"?>
<!DOCTYPE svg PUBLIC "-//W3C//DTD SVG 20010904//EN"
 "http://www.w3.org/TR/2001/REC-SVG-20010904/DTD/svg10.dtd">
<svg version="1.0" xmlns="http://www.w3.org/2000/svg"
 width="16.000000pt" height="16.000000pt" viewBox="0 0 16.000000 16.000000"
 preserveAspectRatio="xMidYMid meet">

<g transform="translate(0.000000,16.000000) scale(0.100000,-0.100000)"
fill="#000000" stroke="none">
<path d="M51 93 c6 -7 17 -13 23 -12 7 0 6 2 -2 6 -6 2 -10 8 -8 12 3 4 -1 8
-9 8 -11 0 -12 -4 -4 -14z"/>
<path d="M106 99 c2 -4 -2 -10 -8 -12 -8 -4 -9 -6 -2 -6 6 -1 17 5 23 12 8 10
7 14 -4 14 -8 0 -12 -4 -9 -8z"/>
<path d="M127 71 c-4 -17 -3 -21 5 -13 5 5 8 16 6 23 -3 8 -7 3 -11 -10z"/>
<path d="M40 56 c0 -2 8 -10 18 -17 15 -13 16 -12 3 4 -13 16 -21 21 -21 13z"/>
</g>
</svg>
